<?xml version="1.0" standalone="no"?>
<!DOCTYPE svg PUBLIC "-//W3C//DTD SVG 20010904//EN"
 "http://www.w3.org/TR/2001/REC-SVG-20010904/DTD/svg10.dtd">
<svg version="1.0" xmlns="http://www.w3.org/2000/svg"
 width="1568.000000pt" height="1568.000000pt" viewBox="0 0 1568.000000 1568.000000"
 preserveAspectRatio="xMidYMid meet">
<metadata>
Created by potrace 1.14, written by Peter Selinger 2001-2017
</metadata>
<g transform="translate(0.000000,1568.000000) scale(0.100000,-0.100000)"
fill="#000000" stroke="none">
<path d="M7812 11972 c-13 -15 -81 -87 -150 -161 -70 -74 -138 -146 -152 -161
-14 -15 -83 -89 -155 -164 -71 -76 -146 -155 -165 -176 -19 -20 -93 -99 -165
-175 -71 -76 -146 -154 -165 -175 -19 -20 -89 -94 -155 -164 -66 -71 -138
-147 -160 -171 -22 -23 -102 -107 -177 -187 -76 -79 -145 -153 -155 -165 -10
-11 -82 -87 -159 -169 -78 -82 -161 -169 -184 -194 -23 -25 -95 -101 -160
-170 -65 -69 -135 -143 -156 -165 -43 -47 -267 -284 -339 -360 -27 -29 -99
-106 -160 -170 -60 -65 -128 -137 -150 -160 -70 -74 -291 -308 -335 -355 -23
-25 -97 -103 -165 -175 -67 -71 -139 -148 -160 -170 -40 -43 -252 -268 -325
-345 -25 -26 -99 -105 -165 -175 -66 -71 -147 -156 -180 -191 -33 -34 -107
-113 -165 -174 -58 -62 -127 -136 -155 -165 -27 -30 -102 -109 -165 -176 -63
-67 -137 -146 -165 -175 -27 -29 -102 -107 -165 -174 -63 -68 -131 -140 -150
-160 -19 -20 -93 -99 -165 -175 -71 -76 -146 -155 -165 -175 -45 -47 -278
-294 -320 -340 -41 -45 -271 -288 -330 -350 -46 -48 -247 -262 -315 -335 -38
-40 -256 -272 -330 -350 -33 -35 -137 -144 -330 -350 -64 -68 -302 -320 -335
-355 -19 -20 -89 -95 -155 -165 -66 -70 -128 -135 -137 -144 -10 -8 -18 -19
-18 -23 0 -5 3523 -8 7830 -8 4307 0 7830 3 7830 6 0 3 -6 11 -12 18 -7 7 -65
68 -128 136 -63 67 -140 148 -170 180 -132 139 -291 308 -325 345 -59 63 -296
314 -335 355 -19 20 -89 94 -155 165 -66 70 -144 153 -174 184 -29 31 -101
107 -160 170 -58 62 -124 132 -146 156 -22 23 -94 99 -160 170 -66 70 -154
163 -195 206 -41 43 -115 122 -165 175 -49 54 -116 125 -149 158 -32 34 -97
103 -145 154 -47 51 -120 128 -161 171 -41 43 -127 134 -190 201 -63 68 -135
144 -160 170 -25 26 -94 100 -155 165 -60 65 -137 146 -170 180 -33 35 -109
116 -170 181 -60 64 -126 134 -145 154 -19 20 -91 97 -160 170 -69 73 -156
165 -193 204 -38 39 -106 112 -152 161 -46 50 -110 117 -142 151 -32 34 -112
119 -178 189 -66 70 -138 147 -160 170 -22 24 -96 102 -165 175 -69 73 -141
149 -160 170 -19 20 -87 93 -152 161 -64 68 -140 149 -170 180 -29 31 -105
111 -168 179 -63 67 -142 151 -175 186 -33 34 -107 113 -165 175 -58 61 -127
135 -155 164 -27 28 -97 102 -155 164 -58 62 -127 136 -155 165 -27 29 -106
112 -175 185 -69 74 -151 161 -183 195 -32 33 -106 112 -165 175 -59 63 -134
142 -167 177 -33 34 -105 111 -160 170 -55 59 -120 128 -145 154 -25 26 -99
105 -165 175 -66 71 -145 154 -175 186 -30 31 -102 108 -160 169 -110 118
-160 170 -163 169 -1 0 -12 -12 -25 -27z m85 -433 c27 -27 73 -76 103 -108 30
-32 120 -127 200 -211 80 -84 170 -179 200 -210 30 -32 111 -118 180 -191 144
-153 193 -204 261 -275 27 -28 49 -55 49 -60 0 -12 -10 -22 -360 -394 -19 -20
-98 -104 -175 -185 -77 -82 -158 -167 -180 -191 -47 -50 -246 -261 -302 -321
l-40 -42 -24 23 c-13 13 -71 74 -129 136 -58 61 -132 140 -165 175 -33 34
-112 118 -175 185 -63 68 -142 151 -175 185 -79 83 -283 298 -334 355 -23 25
-41 50 -41 57 0 11 30 46 145 168 100 106 278 297 425 455 123 132 135 146
289 308 64 68 129 139 146 158 16 19 35 34 42 34 7 0 34 -23 60 -51z m1225
-1282 c7 -8 65 -69 128 -137 63 -68 135 -145 160 -171 53 -56 125 -133 270
-289 58 -62 121 -130 140 -150 19 -21 80 -86 135 -145 103 -111 126 -135 184
-197 29 -32 32 -39 20 -51 -8 -8 -72 -76 -144 -152 -148 -157 -151 -161 -335
-355 -74 -78 -155 -164 -180 -190 -25 -26 -107 -113 -183 -193 -76 -80 -155
-164 -175 -187 l-38 -40 -114 121 c-63 67 -137 145 -165 174 -27 29 -104 111
-170 181 -66 70 -154 164 -196 208 -42 45 -91 97 -109 116 -18 19 -87 93 -154
163 -81 86 -123 139 -128 159 -6 32 10 52 177 224 22 22 92 97 157 165 64 68
140 149 170 180 63 67 252 270 298 319 18 19 76 81 129 138 53 57 98 108 99
113 5 12 8 11 24 -4z m-2449 -73 c40 -42 92 -98 117 -124 76 -81 313 -330 355
-375 22 -23 103 -108 180 -190 77 -81 175 -184 217 -229 85 -89 102 -120 84
-154 -10 -18 -139 -159 -301 -328 -27 -29 -104 -109 -170 -180 -66 -70 -140
-149 -165 -175 -25 -26 -94 -100 -155 -164 -208 -222 -240 -255 -251 -255 -6
0 -40 32 -75 70 -35 39 -98 106 -139 149 -41 43 -127 133 -190 201 -63 67
-133 141 -155 165 -22 23 -89 95 -150 159 -60 65 -137 146 -170 181 -146 153
-185 195 -185 199 0 6 163 178 445 471 33 34 137 142 230 240 269 281 398 415
402 415 2 0 36 -34 76 -76z m-1317 -1281 c37 -40 242 -259 289 -308 36 -38
205 -218 300 -320 108 -115 290 -308 362 -384 46 -47 83 -92 83 -99 0 -7 -4
-10 -10 -7 -5 3 -10 2 -10 -3 0 -9 -36 -49 -215 -237 -22 -24 -98 -105 -170
-181 -71 -76 -156 -165 -187 -198 -32 -32 -58 -60 -58 -61 0 -2 -26 -30 -57
-62 -115 -119 -326 -343 -339 -360 -15 -20 -23 -12 -319 302 -71 76 -146 155
-165 175 -19 20 -89 95 -155 165 -66 70 -144 153 -174 184 -161 169 -266 285
-263 293 1 6 8 16 15 23 7 6 66 69 132 140 66 70 143 151 170 180 28 30 96
103 153 163 57 61 124 132 150 160 66 70 266 282 357 380 43 45 80 82 82 82 2
0 15 -12 29 -27z m2527 -15 c22 -24 92 -99 157 -168 65 -69 132 -141 150 -160
18 -19 81 -87 140 -150 59 -63 122 -131 140 -150 18 -19 82 -88 144 -154 61
-65 125 -133 141 -151 17 -17 56 -59 87 -92 l58 -61 -48 -50 c-26 -27 -96
-102 -157 -167 -60 -65 -130 -139 -155 -165 -40 -42 -266 -282 -330 -350 -35
-37 -298 -315 -341 -361 l-36 -37 -24 22 c-13 13 -65 68 -116 122 -50 55 -116
125 -147 158 -31 32 -56 63 -56 68 0 5 -4 6 -10 3 -5 -3 -10 -2 -10 2 0 5 -19
29 -42 54 -82 86 -306 324 -338 359 -78 85 -277 295 -292 309 -27 23 -23 33
35 93 45 48 128 136 302 322 22 24 78 84 125 133 254 269 373 396 490 521 47
50 87 92 90 92 2 0 22 -19 43 -42z m2737 -239 c69 -73 143 -151 165 -174 22
-23 96 -102 165 -175 69 -73 152 -161 185 -195 183 -192 280 -299 277 -307 -3
-10 -34 -45 -161 -177 -34 -36 -103 -109 -151 -161 -49 -52 -115 -122 -147
-156 -32 -33 -114 -121 -183 -194 -69 -73 -145 -154 -170 -180 -25 -25 -90
-95 -145 -154 l-99 -107 -76 79 c-72 76 -273 288 -451 476 -47 50 -107 114
-133 141 -26 28 -96 101 -154 163 -59 63 -139 148 -179 190 -45 47 -70 80 -65
88 6 10 121 134 277 298 22 23 76 80 120 127 137 147 334 356 540 572 l119
126 71 -73 c38 -41 126 -134 195 -207z m-6395 -1216 c83 -86 191 -199 240
-251 50 -52 117 -123 150 -157 33 -34 121 -127 195 -205 74 -78 170 -179 213
-224 73 -75 97 -110 97 -139 0 -12 -29 -44 -235 -262 -67 -71 -139 -147 -159
-169 -52 -57 -283 -301 -493 -523 -62 -65 -123 -130 -136 -146 l-23 -28 -27
28 c-15 16 -59 62 -98 103 -162 172 -210 223 -329 349 -69 73 -147 157 -175
186 -27 28 -99 105 -160 170 -60 64 -147 156 -192 203 -46 48 -83 92 -83 97 0
6 33 44 73 86 39 41 122 128 182 193 61 65 135 143 165 175 30 32 111 118 180
191 69 73 150 159 180 191 30 32 100 106 155 164 55 59 102 111 103 116 9 23
38 -1 177 -148z m2417 93 c29 -30 100 -105 158 -167 141 -150 153 -164 316
-335 78 -82 156 -165 174 -184 25 -28 277 -293 326 -344 30 -32 22 -58 -37
-121 -16 -16 -46 -49 -66 -71 -96 -106 -159 -173 -423 -454 -19 -20 -111 -117
-205 -215 -93 -98 -197 -207 -231 -241 -33 -35 -65 -64 -70 -64 -5 0 -48 42
-95 93 -48 50 -117 124 -154 162 -36 39 -117 124 -178 189 -62 66 -130 139
-152 162 -22 23 -94 99 -160 169 -177 188 -201 214 -267 283 -54 55 -59 64
-47 79 18 23 13 18 164 178 72 76 146 154 165 175 19 20 96 101 170 180 74 79
146 155 160 170 14 15 86 91 162 171 75 79 155 165 179 192 23 26 46 47 50 47
4 0 31 -24 61 -54z m2523 5 c18 -20 59 -63 91 -97 77 -80 370 -387 423 -444
41 -43 223 -235 383 -404 99 -103 113 -119 121 -132 3 -6 -17 -36 -46 -66 -98
-104 -285 -303 -322 -343 -21 -22 -100 -105 -176 -185 -76 -80 -150 -158 -165
-175 -15 -16 -93 -99 -173 -184 -80 -84 -150 -160 -154 -167 -16 -28 -16 -28
-167 137 -47 51 -103 111 -125 134 -22 23 -89 95 -150 160 -60 65 -126 135
-145 155 -19 20 -87 92 -150 160 -63 68 -133 142 -155 165 -170 180 -188 202
-177 220 7 12 137 153 252 274 30 32 107 113 170 181 63 67 140 148 170 180
165 173 369 391 418 446 30 36 32 35 77 -15z m2485 40 c0 -4 23 -32 51 -62 73
-78 235 -250 299 -317 30 -32 111 -118 180 -192 69 -73 145 -154 170 -180 55
-57 278 -294 314 -333 14 -15 26 -31 26 -34 0 -3 -27 -33 -59 -67 -32 -33 -76
-79 -96 -101 -44 -47 -242 -258 -335 -356 -36 -37 -112 -118 -170 -180 -58
-61 -127 -135 -154 -163 -26 -28 -93 -99 -147 -157 l-100 -106 -67 70 c-107
112 -150 157 -272 288 -63 67 -135 143 -160 169 -25 26 -95 100 -157 166 -61
65 -133 142 -160 170 -135 142 -242 260 -242 269 0 9 96 115 254 281 69 72
293 309 334 353 54 58 166 176 320 339 128 135 171 171 171 143z m-8814 -1330
c10 -10 71 -73 134 -141 63 -68 135 -144 160 -170 25 -26 95 -101 155 -166 61
-64 139 -148 175 -185 73 -77 268 -282 348 -367 32 -34 52 -65 52 -79 0 -21
-38 -68 -145 -179 -36 -38 -345 -365 -485 -514 -38 -40 -104 -110 -346 -367
-62 -65 -73 -73 -85 -60 -14 14 -229 243 -299 317 -107 114 -291 309 -330 350
-25 27 -101 107 -170 180 -69 73 -149 157 -177 187 -29 30 -53 59 -53 64 0 5
-5 9 -11 9 -6 0 -9 4 -7 10 3 9 98 114 213 235 28 29 102 108 165 175 63 68
135 144 160 170 25 26 97 103 160 171 63 67 129 137 145 155 17 17 71 75 120
127 50 53 93 96 96 97 3 0 14 -8 25 -19z m2533 -18 c18 -21 92 -101 164 -177
73 -77 148 -156 167 -177 19 -20 85 -91 146 -156 62 -65 126 -134 144 -153 18
-19 90 -96 160 -170 206 -217 240 -255 237 -262 -2 -6 -142 -156 -302 -324
-33 -35 -103 -109 -155 -165 -52 -55 -115 -122 -140 -148 -83 -88 -316 -335
-391 -414 l-73 -78 -64 68 c-75 80 -311 330 -362 383 -34 36 -237 251 -320
340 -23 25 -96 102 -163 173 -66 70 -128 137 -139 149 -18 21 -18 22 44 87 35
36 74 78 88 92 14 15 77 82 140 150 63 68 131 139 150 159 85 87 225 242 228
251 2 5 10 9 18 9 8 0 14 3 14 8 0 4 19 28 43 54 39 43 261 279 300 320 24 25
30 23 66 -19z m5122 -85 c63 -67 134 -143 159 -169 25 -26 97 -102 160 -170
63 -67 130 -138 149 -158 18 -20 86 -92 150 -160 130 -139 167 -178 263 -279
l67 -70 -46 -48 c-25 -27 -94 -101 -154 -164 -108 -115 -130 -138 -347 -369
-64 -68 -144 -152 -177 -187 -33 -34 -97 -102 -142 -151 -45 -48 -109 -116
-142 -151 l-60 -63 -93 97 c-51 53 -120 125 -153 159 -33 34 -132 138 -220
230 -88 92 -203 212 -255 266 -259 269 -355 371 -355 379 0 8 117 135 297 321
40 42 145 152 233 244 88 93 184 193 213 224 266 278 328 341 333 341 3 0 57
-55 120 -122z m-2540 -9 c63 -67 134 -143 159 -169 25 -26 97 -102 160 -170
63 -67 131 -139 150 -160 38 -40 264 -280 320 -340 19 -21 61 -65 93 -98 31
-33 57 -66 57 -72 0 -7 -10 -22 -22 -34 -13 -12 -81 -84 -153 -160 -71 -76
-150 -160 -175 -186 -25 -26 -91 -96 -147 -156 -56 -60 -125 -134 -155 -165
-29 -31 -111 -118 -183 -194 -71 -76 -151 -160 -177 -186 l-48 -48 -48 52
c-27 29 -71 76 -98 105 -27 30 -71 78 -99 107 -27 29 -88 94 -135 145 -47 51
-101 110 -120 130 -19 20 -75 81 -125 135 -49 53 -108 116 -130 140 -22 23
-78 83 -125 134 -47 51 -104 113 -127 137 -24 24 -43 48 -43 53 0 9 62 79 170
191 30 31 101 106 157 166 56 60 125 134 155 165 29 31 109 116 178 189 69 73
143 152 165 175 22 23 81 86 130 139 50 53 93 96 96 96 3 0 57 -55 120 -121z
m5055 -16 c71 -75 147 -155 169 -178 22 -23 96 -102 165 -175 69 -73 145 -154
170 -180 41 -43 171 -181 359 -380 39 -41 70 -78 68 -82 -2 -6 -139 -153 -257
-277 -30 -31 -104 -110 -165 -175 -60 -64 -135 -143 -165 -175 -30 -32 -113
-121 -185 -196 -71 -76 -160 -170 -197 -209 -38 -38 -68 -73 -68 -77 0 -4 -6
-9 -14 -12 -19 -7 -174 136 -336 312 -52 57 -106 115 -120 130 -14 15 -68 73
-120 130 -52 56 -111 119 -130 140 -115 125 -245 264 -293 316 -31 33 -61 72
-66 87 -10 29 6 52 124 174 22 22 103 107 180 189 77 81 167 175 200 210 33
34 128 133 210 220 298 314 328 345 335 345 3 0 64 -62 136 -137z m-11221
-1408 c22 -24 94 -100 160 -170 66 -70 136 -144 155 -164 19 -20 100 -106 180
-191 80 -84 166 -175 193 -202 26 -26 44 -49 40 -49 -5 -1 -434 -2 -955 -3
-841 -1 -945 1 -935 14 6 8 32 36 57 61 25 26 118 123 207 215 232 243 274
286 491 511 l194 202 87 -91 c47 -50 104 -110 126 -133z m2485 -5 c25 -26 97
-102 160 -170 63 -67 140 -148 170 -180 30 -32 111 -117 180 -190 69 -73 146
-154 172 -181 27 -27 45 -50 40 -50 -30 -5 -1881 -3 -1880 3 3 5 150 162 326
347 35 36 105 110 155 164 51 54 119 127 152 162 33 34 116 122 184 193 l124
131 86 -91 c47 -50 106 -112 131 -138z m2568 -39 c75 -80 151 -159 167 -177
17 -17 103 -107 191 -200 235 -245 318 -334 326 -348 5 -8 -226 -11 -932 -11
-516 0 -941 3 -944 6 -4 3 20 33 51 66 50 51 147 154 408 429 28 29 111 116
185 195 74 78 171 180 214 226 l80 83 58 -62 c32 -35 120 -128 196 -207z
m2532 -21 c69 -72 157 -165 195 -205 39 -40 122 -128 185 -196 63 -67 153
-162 200 -211 47 -49 86 -93 88 -96 1 -6 -1848 -8 -1881 -3 -4 0 14 23 40 49
26 27 104 109 173 182 69 73 152 162 185 196 33 35 101 106 150 159 50 52 130
137 178 188 48 51 116 122 150 160 l62 67 75 -78 c41 -44 131 -139 200 -212z
m2303 223 c83 -87 135 -142 277 -292 63 -68 149 -158 190 -202 41 -43 127
-133 190 -200 63 -67 133 -141 155 -164 22 -23 48 -51 57 -61 16 -19 -3 -19
-928 -19 -519 0 -944 2 -944 5 0 3 32 39 71 80 40 41 133 140 208 219 75 79
154 163 176 186 129 138 298 317 353 373 34 35 62 66 62 67 0 3 56 64 66 74 1
0 31 -29 67 -66z m2703 -200 c78 -81 172 -181 210 -221 38 -41 97 -103 130
-138 34 -36 115 -122 180 -191 66 -69 132 -139 147 -155 16 -15 27 -29 25 -29
-9 -4 -1874 -5 -1881 -1 -4 2 14 25 40 52 26 27 87 90 134 142 48 51 115 123
150 159 35 37 117 122 181 190 64 68 142 151 173 184 32 33 103 108 158 167
l101 108 55 -59 c31 -33 119 -126 197 -208z"/>
</g>
</svg>
