<svg xmlns="http://www.w3.org/2000/svg" viewBox="0 0 512 512"><defs><style>.cls-1,.cls-29{fill:#fed9be;}.cls-2{opacity:0.4;}.cls-3{fill:#58595b;}.cls-4{fill:#404041;}.cls-5{fill:#e6e7e8;}.cls-6{fill:#c7b299;}.cls-7{fill:#451d15;}.cls-8{fill:#d7d1ce;}.cls-29,.cls-31,.cls-8{fill-rule:evenodd;}.cls-9{fill:#ba4e9c;}.cls-10{fill:#f9a624;}.cls-11{fill:#7ac043;}.cls-12{fill:#64c8d5;}.cls-13{fill:#3e2945;}.cls-14{opacity:0.21;}.cls-15{fill:#3f3f44;}.cls-16,.cls-31{fill:#f7bf9a;}.cls-17{opacity:0.63;}.cls-18{fill:#f2a88f;}.cls-19{fill:#f79820;}.cls-20{fill:#90278e;}.cls-21{fill:#f88f1c;}.cls-22{fill:#f9ac67;}.cls-23{fill:#f79c41;}.cls-24{fill:#8e3d7c;}.cls-25{fill:#d49f77;}.cls-26{fill:#8628f8;}.cls-27{fill:#a673f9;}.cls-28{fill:#944df7;}.cls-30{fill:#fff;}.cls-32{fill:#f2f2f2;}.cls-33{fill:#543966;}.cls-34{opacity:0.35;}.cls-35{fill:#2a1d30;}</style></defs><title>cave, man, emoticon, emoji, sticker, painting</title><g id="social_media" data-name="social media"><g id="artist"><path class="cls-1" d="M305.82,390.23a11.43,11.43,0,0,1-16,2.32l-6.59-4.92a11.43,11.43,0,0,1-2.33-16h0a11.43,11.43,0,0,1,16-2.33l6.6,4.92a11.43,11.43,0,0,1,2.33,16Z"/><g class="cls-2"><rect class="cls-3" x="356.5" y="283.51" width="14.85" height="142.03"/><rect class="cls-4" x="363" y="321.57" width="8.35" height="103.97"/><rect class="cls-4" x="321.23" y="400.47" width="86.33" height="13"/><rect class="cls-3" x="336.08" y="400.47" width="71.48" height="7.43"/><rect class="cls-4" x="344.43" y="142.41" width="39.92" height="2.78"/><polygon class="cls-4" points="334.32 132.2 310.51 435.75 325.29 435.75 345.41 132.2 334.32 132.2"/><polygon class="cls-4" points="393.85 132.2 417.66 435.75 402.88 435.75 382.76 132.2 393.85 132.2"/><polygon class="cls-3" points="400.04 435.75 412.73 435.75 392.29 132.2 382.76 132.2 345.41 132.2 335.89 132.2 335.2 144.52 315.44 435.75 328.13 435.75 344.83 143.34 383.34 143.34 400.04 435.75"/><rect class="cls-4" x="285.95" y="302.07" width="155.95" height="11.14"/><rect class="cls-3" x="290.59" y="302.07" width="151.31" height="10.21"/></g><rect class="cls-5" x="254.75" y="156.17" width="238.79" height="149.45"/><rect class="cls-6" x="237.32" y="156.17" width="238.79" height="149.45"/><path class="cls-7" d="M352.85,236.22a22.84,22.84,0,0,1,4,8.77c-3.25,1.77-6.51-2.94-10.2-3.11-1.78-.08-3.41.92-4.85,2-6.87,5-12.45,11.69-19.93,15.65-6.77,3.58-14.6,4.61-22.25,4.83-5.58.16-11.17-.06-16.75-.29-3.5-.14-7.16-.33-10.2-2.07s-5.21-5.55-3.9-8.81a3.6,3.6,0,0,0,5.23,1c1-.85,1.43-2.17,2.13-3.27,1.76-2.78,5.16-4.06,8.42-4.48s6.59-.15,9.82-.72c6.77-1.18,12.57-5.88,19.37-6.82,5.11-.7,10.31.8,15.44.32,8.1-.75,16.14-6.32,23.77-3.49.83.31,1.71,1.42,1,1.9"/><path class="cls-7" d="M350.77,237.44a21,21,0,0,1,3.79,8.19l2.33-3.06c-4.54.53-7.48-3.65-12.12-2.75-4.92,1-9.35,6.2-13,9.29-8.57,7.25-16.84,11.67-28.27,12.6-6.43.52-34,2.91-32.36-7.91l-4,1.07c3,2.72,4.54,2.33,8.16,1.33.77-.21,1.67-2.19,2-2.41,10-5.79,9.36-4.15,17.75-5.82,9.61-1.91,16.14-6.62,26.44-6.66,4.17,0,7.73.38,11.84-.42,1.69-.33,18.43-5.41,18.2-3.34-.34,3.09,4.5,3.06,4.83,0,.41-3.76-3.57-4.78-6.67-5.06-4.94-.45-9.52,1.63-14.2,2.8-6.83,1.71-12.94.6-19.8,1a32.55,32.55,0,0,0-9.69,2.34c-6.93,2.6-12.37,4.39-19.79,5.17-3.12.33-6.39.76-9,2.63-1.28.9-4.7,6.8-6.67,5-1.2-1.09-3.76-.85-4,1.07-2.67,18.08,26.42,14.82,37,14,9.49-.71,18-3.2,25.66-8.94,4.11-3.08,9.29-10,13.91-11.68s9.24,2,13.83,1.49a2.45,2.45,0,0,0,2.33-3.06,34.18,34.18,0,0,0-4.28-9.34c-1.68-2.61-5.87-.18-4.17,2.44Z"/><path class="cls-7" d="M280.15,263.58a52.17,52.17,0,0,1,1.91,5.77c.68,3.36-1,4-3.74,5.65l-11.84,7.22c-2.65,1.62-.23,5.8,2.44,4.17l9.06-5.52c2.46-1.5,5.48-2.83,7.63-4.78,4.1-3.71.63-9.51-.79-13.8-1-2.94-5.64-1.68-4.66,1.29Z"/><path class="cls-7" d="M269.44,259.31a12.38,12.38,0,0,0-.56,4.89c.06,3.42-.77,4.36-3.87,6.09a35.53,35.53,0,0,1-14.9,4.33c-3.08.22-3.11,5.06,0,4.83a40.7,40.7,0,0,0,18-5.35c2.21-1.31,4.61-2.91,5.59-5.42,1.08-2.78-.59-5.31.42-8.09,1.06-2.93-3.61-4.19-4.66-1.29Z"/><path class="cls-7" d="M327.4,257.31c3.13,2.15,6.33,4.22,9.4,6.46,3.25,2.37,4.38,5.78,5.92,9.35,1.22,2.85,5.39.39,4.17-2.44-1.63-3.8-3-7.42-6.29-10.07s-7.18-5-10.76-7.48c-2.57-1.77-5,2.42-2.44,4.17Z"/><path class="cls-7" d="M335.21,250.57c4.18,1.12,11,1.68,13.42,5.7,1.88,3.16,2.14,6.91,4.44,9.9,1.87,2.43,6.08,0,4.17-2.44-2.79-3.62-2.79-8.66-6-12-3.63-3.81-9.92-4.49-14.75-5.79-3-.81-4.29,3.86-1.29,4.66Z"/><path class="cls-7" d="M355.53,235.84c1.32-4.82,2.07-12.67,6-15.83,3.49-2.81,7-5.07,10-8.44,2.09-2.3-1.32-5.73-3.42-3.42a42.83,42.83,0,0,1-6.46,5.94c-1.82,1.32-4.45,2.28-5.87,4s-1.75,4.72-2.31,6.75l-2.65,9.66c-.82,3,3.84,4.29,4.66,1.29Z"/><path class="cls-7" d="M358.62,215.63a33.46,33.46,0,0,1-4.87-11c-.73-3-5.39-1.74-4.66,1.29a37.4,37.4,0,0,0,5.35,12.17c1.73,2.57,5.92.15,4.17-2.44Z"/><path class="cls-7" d="M349,233.81l.28-9.67c.09-3.11-4.75-3.11-4.83,0l-.28,9.67c-.09,3.11,4.75,3.11,4.83,0Z"/><path class="cls-7" d="M346.5,221.51a115,115,0,0,0-24.08-10c-3-.86-4.27,3.8-1.29,4.66a109.26,109.26,0,0,1,22.92,9.5c2.72,1.51,5.16-2.66,2.44-4.17Z"/><path class="cls-7" d="M331.85,215l-1.29-8a2.43,2.43,0,0,0-3-1.69,2.48,2.48,0,0,0-1.69,3l1.29,8a2.43,2.43,0,0,0,3,1.69,2.48,2.48,0,0,0,1.69-3Z"/><path class="cls-7" d="M327.82,216.32l-8.45,4.85c-2.7,1.55-.27,5.73,2.44,4.17l8.45-4.85c2.7-1.55.27-5.73-2.44-4.17Z"/><path class="cls-7" d="M338,218.9a69.54,69.54,0,0,1-7.39,6.7,2.43,2.43,0,0,0,0,3.42,2.48,2.48,0,0,0,3.42,0,69.54,69.54,0,0,0,7.39-6.7c2.15-2.25-1.26-5.67-3.42-3.42Z"/><path class="cls-8" d="M287.75,375.38a5.31,5.31,0,0,0-1.37,1.31c-2.35,3.26-.53,8.6,4.09,11.94,3.87,2.8,8.48,3.3,11.25,1.45l26.15,27.52c-9.69,1.36-20.91-.74-31.19-5.44-23.29-10.64-31.33-33-27.43-39.6,3.47-5.9,9.62-.27,13.22-2.72ZM352.33,394c-2.36,14.63-12.19,21.91-24.45,23.63l-26.15-27.52a5.29,5.29,0,0,0,1.37-1.31c2.35-3.26.52-8.6-4.09-11.94-3.87-2.8-8.48-3.3-11.25-1.45l-5.27-5.55a4.21,4.21,0,0,0,1.2-1.31c3.26-5.32-9.58-11.65-2.57-26.64s30.87-8.83,41.4-1.34C336.93,350.8,355.63,373.56,352.33,394Z"/><circle class="cls-9" cx="303.31" cy="348.16" r="10.09" transform="translate(-109.34 555.36) rotate(-75.6)"/><circle class="cls-10" cx="326.42" cy="364.16" r="10.09" transform="translate(-107.47 589.78) rotate(-75.6)"/><circle class="cls-11" cx="335.59" cy="389.68" r="8.95" transform="translate(-125.3 617.82) rotate(-75.6)"/><circle class="cls-12" cx="313.75" cy="404.66" r="8.47" transform="translate(-156.23 607.92) rotate(-75.6)"/><path class="cls-13" d="M30,155c1.9-19.2,34.29-35,34.29-35S44.09,131.63,39.09,125s3.83-17.61,32.4-27.33c0,0-14.68-8.36-12.47-17.5s45.32,1.69,45.32,1.69-18.21-18.4-8.28-19.93S127.11,71,127.11,71s-16.88-7.68-14.48-15.47,34.87,11,34.87,11S132.27,43.8,146,45.83c8.78,1.29,21.33,19.83,21.33,19.83s-12.83-30.83-.08-31,14,30.37,14,30.37,8.4-30.91,16.4-28.31S190.17,65,190.17,65,233.73,30.62,241,42.92s-19,20.45-21.66,21.66,34.32-11.71,38.32-1S243,79.22,236.5,81.35c0,0,46.62-6.49,48.84,3.81s-24.86,10.2-30.16,9.9c0,0,38.1,12.16,36.63,20.18s-10.39,3.85-24.91.87c0,0,24.83,9.67,24.43,20.79s-26.88-.66-26.88-.66,23.81,7.15,27.2,17.94S262.16,175,262.16,175H66.65S28.06,174.22,30,155Z"/><g class="cls-14"><ellipse class="cls-15" cx="162.6" cy="486.85" rx="92.67" ry="9.15"/></g><path class="cls-16" d="M197.41,450s-.87,32.88,8.91,34.65,32.21,6.21,35.94,0-3.28-20.34-24-23.94S197.41,450,197.41,450Z"/><path class="cls-16" d="M213,484.85c3.17.46,11.6-24.25,18.18-53.12H187.83C202.39,447.77,199.65,482.91,213,484.85Z"/><path class="cls-16" d="M126.81,450.78s.87,32.88-8.91,34.65-32.21,6.21-35.94,0,3.28-20.34,24-23.94S126.81,450.78,126.81,450.78Z"/><path class="cls-16" d="M111.43,485.64c-3.17.46-11.6-24.25-18.18-53.12h43.34C122,448.55,124.77,483.69,111.43,485.64Z"/><g class="cls-17"><polygon class="cls-18" points="198.55 454.62 216.86 443.79 226.52 450.38 230.73 438.92 212.13 434.49 195.66 447.26 198.55 454.62"/></g><g class="cls-17"><polygon class="cls-18" points="96.98 447.44 101.18 443.19 117.26 451.77 129.19 444.09 132.42 437.19 95.97 437.19 95.13 440.58 96.98 447.44"/></g><path class="cls-16" d="M222.84,293l-22.57-4.8-76.76,0L101,293c-13.78,4.07-23.7,21.95-23.7,42.7l3.76,70.67c24.08,28.65,136.72,27.55,159-3.9l6.45-66.76c0-20.76-9.92-38.64-23.7-42.71Zm0,0"/><path class="cls-1" d="M240.08,402.49l6.45-66.76c0-20.76-9.92-38.64-23.7-42.71h0l-22.57-4.8-76.76,0L101,293l89.72,23,49.33,86.44M222.84,291.85"/><ellipse class="cls-19" cx="194.31" cy="320.64" rx="7.67" ry="5.82" transform="translate(-155.76 186.4) rotate(-37.8)"/><path class="cls-20" d="M153.89,415.38c-6.18-2.46-16.45-5.57-13.34-8,2.84-2.27,12.15-10.35,18.94-16.27,4.31-3.76,11.06-4.63,15.65-1.89,3.55,2.13,7.79,4.69,11.63,7.09,8.8,5.5,2.52,11,2.52,11l-4.53,2.23-15,4.6S160.3,417.93,153.89,415.38Z"/><path class="cls-21" d="M111.68,389c-11,2.32-21.55,6.36-32.51,8.25,1.09,14.74,3.27,35.52,7.5,49.82l12.49-8.74L118.42,447l17.75-12.59,3.76,2.78-22-49.39C115.84,388.18,113.76,388.59,111.68,389Z"/><path class="cls-22" d="M235.45,379.29c-.61-.47-1.19-1-1.78-1.45a2.46,2.46,0,0,1-1-.91,51.35,51.35,0,0,1-15.71-23.54c-5.9-18-5.23-37.41-9.28-55.82a2.29,2.29,0,0,1,.68-2.23c-.27-1.88-.54-3.77-.82-5.65a58.59,58.59,0,0,0-11.77-1.57,2.35,2.35,0,0,1-.22,1.39c-1.43,2.83-2.81,5.68-4.19,8.53-2.45,15-11.54,45.64-12.2,45.81-.1,0-.17.1-.26.14l63.53,48.64c.2-2.07.36-4,.49-5.88A15.61,15.61,0,0,1,235.45,379.29Z"/><path class="cls-21" d="M235,446.07l-1.34.5,1.17.53Z"/><path class="cls-23" d="M178.85,344c-3.53,1.48-29.84,26.13-31.13,27.08-9.75,7.16-18.27,14.47-29.8,16.69l22,49.39,14,10.32,19-9.69,22.82,14,19.78-13.41,18.16,8.21,1.34-.5c.92-5.59,5.45-33.5,7.34-53.42Z"/><path class="cls-20" d="M216.92,353.4a98.46,98.46,0,0,1-3.05-12.21l-6,2.59c-4.21,1.82-6,5.41-4,8l0,.05c2,2.58,8.26,4.69,13.83,4.69h.35C217.73,355.47,217.28,354.49,216.92,353.4Z"/><path class="cls-20" d="M228.22,372.67a141.79,141.79,0,0,0-16,8c-5.41,3.2-3.25,7.57-2,10.37s29.65,6.86,29.65,6.86.92-1,2.26-2.57c.41-4,.73-7.73.91-11A64.63,64.63,0,0,1,228.22,372.67Z"/><path class="cls-20" d="M240.08,412.3l-4-.06-7.31,0c-7,0-13.81.12-18.15.12-7.48,0-9.82,6-10.52,10.48-.42,2.69,3.32,6.84,7.58,9.18,4.77,2.62,21.6,3.69,29,4C237.64,429.59,238.92,421,240.08,412.3Z"/><path class="cls-20" d="M154.35,442.6s5.8-.92,4.64-5.63c-.34-1.37-.54-2.75-.66-3.6-.33-2.21-1.87-3.79-5.36-5s-12.68-3.55-12.68-3.55-9.32-3.12-13.89-.52c-1.05.6-2.8,1.69-3.65,2.3-5.73,4.14,1,11.07,1,11.07l6.34,1.26,6.08-4.53,13.44,9.69Z"/><path class="cls-20" d="M103.72,421.73c3.55-.14,8.9-2.56,9.48-9.86s-9.49-9.3-9.49-9.3l-24.32-2.39c.53,6.57,1.26,14.08,2.27,21.58C88,421.78,101,421.84,103.72,421.73Z"/><path class="cls-20" d="M162.65,361.42c5.46-.47,9.89-1,11.15-1.4,2.31-.8,1-5.29-.6-9.17A80.86,80.86,0,0,1,162.65,361.42Z"/><path class="cls-20" d="M205.69,311.68A73.5,73.5,0,0,0,190.13,307c-.41,3.62-.79,7.29-1.28,10.92,1.6-.41,3.25-.87,5-1.42C206.91,312.26,205.69,311.68,205.69,311.68Z"/><ellipse class="cls-24" cx="165.41" cy="254.73" rx="64.43" ry="34.33"/><ellipse class="cls-25" cx="165.41" cy="247.29" rx="64.43" ry="34.33"/><path class="cls-16" d="M261.84,207c-6.2-30.43-9.87-66.11-31.78-92.07C183.5,59.63,96.9,87.52,74,142.26,61,174,39.51,238.21,87,253.49,145.16,272,275.93,276.22,261.84,207Z"/><path class="cls-1" d="M120.73,142.25c11.22-26.77,37.67-47.11,67.21-54.45-44.78-12-96.94,13.8-114,54.45C61,174,39.51,238.2,87,253.48c26.79,8.54,69,14,105.36,10.71-22-1.76-42.93-5.71-58.6-10.71C86.27,238.2,107.81,174,120.73,142.25Z"/><path class="cls-26" d="M270,63.13c5.11,24.89-90,43.15-139.78,53.37s-89.9,19.7-95-5.2,27.91-69,77.7-79.17S264.94,38.24,270,63.13Z"/><path class="cls-27" d="M113,32.13c-42.42,8.7-72.64,42-77.51,67,7.58,21.27,46.43,12.16,94.2,2.36,43.52-8.93,121.66-24,137.23-44.29C248.54,35.76,158.68,22.75,113,32.13Z"/><circle class="cls-28" cx="96.54" cy="28.22" r="12.22" transform="translate(-1.09 4.03) rotate(-2.38)"/><path class="cls-25" d="M61.35,150.3l.4.9a3,3,0,0,1-.17-.41C61.52,150.64,61.45,150.48,61.35,150.3Z"/><path class="cls-25" d="M61.78,151.25l0,.05-.07-.1A.13.13,0,0,1,61.78,151.25Z"/><path class="cls-25" d="M61.59,150.79a3,3,0,0,0,.17.41l.07.1C61.93,151.49,61.83,151.28,61.59,150.79Z"/><path class="cls-25" d="M259.78,150.3l-.4.9a3.47,3.47,0,0,0,.16-.41C259.61,150.64,259.68,150.48,259.78,150.3Z"/><path class="cls-25" d="M259.34,151.25l0,.05.07-.1S259.35,151.24,259.34,151.25Z"/><path class="cls-25" d="M259.54,150.79a3.47,3.47,0,0,1-.16.41l-.07.1C259.2,151.49,259.3,151.28,259.54,150.79Z"/><path class="cls-29" d="M236.07,291.8c1.64,3.54,7.27,13.94,7.27,13.94s60,66.6,48.69,78.39-80.84-67.9-79-69.94S236.07,291.8,236.07,291.8Z"/><path class="cls-13" d="M298.45,249c-2.67-9.93-24-25-24-25,29.76,7.72,19.08-9.56,19.08-9.56-5.34-10.66-30.15-18.75-30.15-18.75,32.82-3.68,13-16.54,13-16.54-19.08-10.29-46.55-8.45-46.55-8.45,15.64-6.25,17.17-16.54,17.17-16.54-1.53-6.62-14.12-7.35-14.12-7.35-1.78.09-3.47.26-5.07.49-.54.08-1,.19-1.53.28-1,.18-2.06.36-3,.59-.58.14-1.11.32-1.67.48-.81.23-1.63.46-2.39.73-.55.2-1.06.42-1.59.63-.68.28-1.37.55-2,.85s-1,.5-1.46.75-1.16.62-1.69.95-.89.57-1.32.86-1,.66-1.42,1-.79.62-1.17.94-.8.68-1.18,1-.7.66-1,1c-.15.15-.33.31-.48.46l0,0a28.41,28.41,0,0,0-7,12.1c10.14,10.69-1,17.4-3.86,18.55s-14.07,14.63-36.38,14.63-33.55-13.5-36.38-14.63-14-7.85-3.86-18.55a28.41,28.41,0,0,0-7-12.1l0,0c-.15-.15-.32-.31-.48-.46q-.49-.5-1-1c-.37-.35-.77-.69-1.18-1s-.76-.63-1.17-.94-.93-.67-1.42-1-.86-.58-1.32-.86-1.12-.64-1.69-.95-.95-.51-1.46-.75-1.32-.58-2-.85c-.53-.21-1-.43-1.59-.63-.76-.27-1.58-.5-2.39-.73-.56-.16-1.08-.34-1.67-.48-1-.23-2-.41-3-.59-.52-.09-1-.21-1.53-.28-1.6-.23-3.29-.4-5.07-.49,0,0-12.59.74-14.12,7.35,0,0,1.53,10.29,17.17,16.54,0,0-27.47-1.84-46.55,8.45,0,0-19.84,12.87,13,16.54,0,0-24.8,8.09-30.15,18.75,0,0-10.68,17.27,19.08,9.56,0,0-21.37,15.07-24,25,0,0-4.58,12.49,20.61-1.47,0,0-9.54,11.76-13,22.79S29.64,282.6,41,276.1c0,0-9.62,12.24-10.39,21.06s1.61,27.06,22.94-3c0,0-5.77,23.59-1.19,33.15,0,0,6.11,5.15,9.92,1.47S69.16,317,68.78,312.6c0,0,4.58,22.05,19.08,27.93,0,0,10.68,2.94,12.59-16.54,0,0,6.11,13.6,17.17,17.64s16.79-2.21,16.41-16.54c0,0,5,21.82,23.6,21.82s25.58-21.82,25.58-21.82c-.38,14.33,5.35,20.58,16.41,16.54S216.79,324,216.79,324c1.91,19.48,12.59,16.54,12.59,16.54,14.5-5.88,19.08-27.93,19.08-27.93-.38,4.41,2.67,12.49,6.49,16.17s9.92-1.47,9.92-1.47c4.58-9.55-1.19-33.15-1.19-33.15,21.33,30.07,23.7,11.83,22.94,3s-10.39-21.06-10.39-21.06c11.36,6.5,18,5.26,14.59-5.77s-13-22.79-13-22.79C303,261.51,298.45,249,298.45,249Z"/><ellipse class="cls-30" cx="90.18" cy="154.97" rx="35.3" ry="35.29"/><path class="cls-31" d="M167.41,253.46c-4.64-5.55-42.57,21.62-47.79,25.36a294.32,294.32,0,0,0-47.16,42.09,16.2,16.2,0,0,0-2,6.36A16.89,16.89,0,0,0,73.26,338c3,11.92,7,15.52,10.33,16.29,0,0,1.6.36,12.16-1.88h0c2.19-3.83,9.49-15,9.49-15S179.22,267.59,167.41,253.46Z"/><circle class="cls-30" cx="228.8" cy="154.13" r="35.31"/><path class="cls-32" d="M228.8,178.06A35.29,35.29,0,0,1,194,148.44a35.31,35.31,0,1,0,69.62,0A35.3,35.3,0,0,1,228.8,178.06Z"/><path class="cls-16" d="M161.39,271.66a12,12,0,0,1-15.57,6.79l-8-3.16a12,12,0,0,1-6.8-15.56h0a12,12,0,0,1,15.56-6.79l8,3.16a12,12,0,0,1,6.8,15.57Z"/><path class="cls-32" d="M90.18,178.89a35.29,35.29,0,0,1-34.81-29.62,35.31,35.31,0,1,0,69.62,0A35.3,35.3,0,0,1,90.18,178.89Z"/><path class="cls-13" d="M99.19,139.71a8.24,8.24,0,1,1,8.24,8.24A8.24,8.24,0,0,1,99.19,139.71Z"/><path class="cls-16" d="M55.27,159.88a35.26,35.26,0,0,0,69.59,1.62C101.83,165,78.66,165.13,55.27,159.88Z"/><path class="cls-13" d="M242.38,141.31a8.24,8.24,0,1,1,8.24,8.24A8.24,8.24,0,0,1,242.38,141.31Z"/><path class="cls-20" d="M163.78,414.45l2-.72h0c1.34-1.27,2.87-2.6,4.56-3.95l7.23-9.61,10.62-2.65,3.24-2-4.79-5.82s-35.37-4.6-39.47-3.7.89,17.05,1.15,18.93S163.78,414.45,163.78,414.45Z"/><path class="cls-33" d="M259.68,105.35c-4.6-3.69-10.4-4.54-16.61-3.72A7.15,7.15,0,0,0,232.72,93a40.38,40.38,0,0,0-10.89,8.71,7.51,7.51,0,0,0-6.48-4.36c-12.59-1.12-21.37,16.77-23.41,26.81-.92,4.53,2.56,8.41,7,8.87a21.36,21.36,0,0,0,7.81-1.15c16.23-4.5,36.74-6.81,51.45-15.19C261.91,114.56,263.34,108.29,259.68,105.35Z"/><path class="cls-33" d="M62.26,84.85c4.6-3.69,10.4-4.54,16.61-3.72a7.15,7.15,0,0,1,10.35-8.66,40.38,40.38,0,0,1,10.89,8.71,7.51,7.51,0,0,1,6.48-4.36C119.17,75.69,128,93.58,130,103.62c.92,4.53-2.56,8.41-7,8.87a21.36,21.36,0,0,1-7.81-1.15c-16.23-4.5-36.74-6.81-51.45-15.19C60,94.06,58.59,87.78,62.26,84.85Z"/><path class="cls-13" d="M135.58,373.85a1,1,0,0,1-.49-1.07q-.07-.72.75,0c.29.37-.07,1.5-.22,1.84a3.15,3.15,0,0,1-2.44,1.8c-1,.18-.58,1.71.42,1.53a4.76,4.76,0,0,0,3.86-4c.19-1.5-.81-4.21-2.81-3.25-1.57.75-1.47,3.42-.29,4.45s3.42-.08,2.76-1.72c-.38-.94-1.91-.53-1.53.42Z"/><path class="cls-13" d="M124.5,367.11a5,5,0,0,0,1.57-4.39c-.16-1.14-.94-3.16-2.42-2.82s-1.19,2.1-.64,3a5.46,5.46,0,0,0,4.24,2.59c1,.11,1-1.48,0-1.59a3.84,3.84,0,0,1-2.17-1,3.32,3.32,0,0,1-.69-.85c-.29-.55-.33-.81-.13,0a3.56,3.56,0,0,1-.87,3.9c-.75.7.38,1.82,1.12,1.12Z"/><path class="cls-13" d="M125.73,344.68c-.23,1.47-.41,3.12.78,4.23a2.2,2.2,0,0,0,2.93.26,2,2,0,0,0,.32-2.53c-.81-1.18-2.17-.51-3,.19s.34,1.77,1.12,1.12c-.68.56-.63-2.66-.6-2.85.16-1-1.37-1.43-1.53-.42Z"/><path class="cls-13" d="M159.86,349.85c-.23,1.47-.41,3.12.78,4.23a2.2,2.2,0,0,0,2.93.26,2,2,0,0,0,.32-2.53c-.81-1.18-2.17-.51-3,.19s.34,1.77,1.12,1.12c-.68.56-.63-2.66-.6-2.85.16-1-1.37-1.43-1.53-.42Z"/><path class="cls-13" d="M230.78,349c-.23,1.47-.41,3.12.78,4.23a2.2,2.2,0,0,0,2.93.26,2,2,0,0,0,.32-2.53c-.81-1.18-2.17-.51-3,.19s.34,1.77,1.12,1.12c-.68.56-.63-2.66-.6-2.85.16-1-1.37-1.43-1.53-.42Z"/><path class="cls-13" d="M122.92,370.52c0,1.55.26,3.18,1.87,3.83a2.34,2.34,0,0,0,3.07-1.22c1.13-2.63-2.92-4-3.65-1.36a.8.8,0,0,0,1.53.42V373a1,1,0,0,1-1-.78,3.23,3.23,0,0,1-.23-1.66.8.8,0,0,0-1.59,0Z"/><path class="cls-13" d="M137.41,350.42c0,1.55.26,3.18,1.87,3.83a2.34,2.34,0,0,0,3.07-1.22c1.13-2.63-2.92-4-3.65-1.36a.8.8,0,0,0,1.53.42v.77a1,1,0,0,1-1-.78,3.23,3.23,0,0,1-.23-1.66.8.8,0,0,0-1.59,0Z"/><path class="cls-13" d="M135.23,342.39c0,1.55.26,3.18,1.87,3.83a2.34,2.34,0,0,0,3.07-1.22c1.13-2.63-2.92-4-3.65-1.36a.8.8,0,0,0,1.53.42v.77a1,1,0,0,1-1-.78,3.23,3.23,0,0,1-.23-1.66.8.8,0,0,0-1.59,0Z"/><path class="cls-13" d="M128.88,357.87c.66-1.38,1.11-2.91,0-4.2a2.35,2.35,0,0,0-3.29-.38c-2.32,1.84.83,5,2.59,2.9.65-.78-.47-1.91-1.12-1.12q1-.65.92.55a4,4,0,0,1-.5,1.46c-.44.92.93,1.73,1.37.8Z"/><path class="cls-13" d="M149.69,366.43c.66-1.38,1.11-2.91,0-4.2a2.35,2.35,0,0,0-3.29-.38c-2.32,1.84.83,5,2.59,2.9.65-.78-.47-1.91-1.12-1.12q1-.65.92.55a4,4,0,0,1-.5,1.46c-.44.92.93,1.73,1.37.8Z"/><path class="cls-13" d="M118.87,363.6c.66-1.38,1.11-2.91,0-4.2a2.35,2.35,0,0,0-3.29-.38c-2.32,1.84.83,5,2.59,2.9.65-.78-.47-1.91-1.12-1.12q1-.65.92.55a4,4,0,0,1-.5,1.46c-.44.92.93,1.73,1.37.8Z"/><path class="cls-13" d="M147.2,352c0,1.55.26,3.18,1.87,3.83a2.34,2.34,0,0,0,3.07-1.22c1.13-2.63-2.92-4-3.65-1.36a.8.8,0,0,0,1.53.42v.77a1,1,0,0,1-1-.78,3.23,3.23,0,0,1-.23-1.66.8.8,0,0,0-1.59,0Z"/><path class="cls-13" d="M220.27,353.89c0,1.55.26,3.18,1.87,3.83a2.34,2.34,0,0,0,3.07-1.22c1.13-2.63-2.92-4-3.65-1.36a.8.8,0,0,0,1.53.42v.77a1,1,0,0,1-1-.78,3.23,3.23,0,0,1-.23-1.66.8.8,0,0,0-1.59,0Z"/><path class="cls-13" d="M117,380.23c.24,1.59.67,3.34,2.28,4.07a2.32,2.32,0,0,0,3.16-1,1.9,1.9,0,0,0-.9-2.62c-1.47-.66-2.76.46-3.62,1.53-.64.79.48,1.92,1.12,1.12a6,6,0,0,1,.62-.73l.77-.5q-.06,1.42-.78.49c-.89-.54-1-1.83-1.12-2.76s-1.68-.58-1.53.42Z"/><path class="cls-13" d="M114.26,354.41c.84-1.57,1.41-3.46.49-5.14-.53-1-2.05-2.29-3.15-1.35s-.38,2.49.29,3.34c1.28,1.62,3.33,2,5.28,1.85,1-.06,1-1.65,0-1.59s-3.93,0-4.28-1.63c-.21-1,.74.94.76,1.09a4.71,4.71,0,0,1-.75,2.62c-.48.9.89,1.71,1.37.8Z"/><path class="cls-13" d="M103.91,359.41a2.76,2.76,0,0,1-1.1,1.16q.18-1.26.55-.16c.63.91,0,1.78-.66,2.5s.44,1.89,1.12,1.12c1.13-1.26,2-3.09.92-4.67a2.26,2.26,0,0,0-3.4-.59,2,2,0,0,0,.18,3.16c1.57.88,3-.48,3.76-1.73.54-.87-.84-1.67-1.37-.8Z"/><path class="cls-13" d="M136,360a2.76,2.76,0,0,1-1.1,1.16q.18-1.26.55-.16c.63.91,0,1.78-.66,2.5s.44,1.89,1.12,1.12c1.13-1.26,2-3.09.92-4.67a2.26,2.26,0,0,0-3.4-.59,2,2,0,0,0,.18,3.16c1.57.88,3-.48,3.76-1.73.54-.87-.84-1.67-1.37-.8Z"/><path class="cls-13" d="M111.54,373.89c1.52-1.14,2.86-2.81,2.36-4.84-.32-1.32-1.9-2.88-3.08-1.39-2.38,3,2.17,7.55,5.07,4.71.73-.72-.39-1.84-1.12-1.12-1.36,1.33-3.14-.44-2.86-2s.51.86.47,1.06a3.77,3.77,0,0,1-1.64,2.19c-.81.6,0,2,.8,1.37Z"/><path class="cls-13" d="M227.75,345.34l-.06-.1-.12,1,.12-.12-.77.2.15,0-.58-.77c0,.4-1.34,1-1.55,1.06a1,1,0,0,1-1.23-.23.9.9,0,0,1-.47-.8l.63.2a3.22,3.22,0,0,1,.07,1.43,3.43,3.43,0,0,1-.87,1.69c-.68.76.44,1.89,1.12,1.12,1.32-1.48,2-3.94.74-5.7a1.77,1.77,0,0,0-3.2.58,2.73,2.73,0,0,0,2.29,3.34c1.42.19,4.18-1,4-2.69a.81.81,0,0,0-.58-.77,1,1,0,0,0-1,.3.81.81,0,0,0-.12,1l.06.1c.54.87,1.91.07,1.37-.8Z"/><path class="cls-13" d="M229.58,363.53q-.66,1.06-1.39-.12a2.19,2.19,0,0,1,.19-1.44c.67-1.13,1.41-.26,1.58.66.33,1.78-1.05,3.56-2.94,2.86-1-.36-1.37,1.18-.42,1.53a3.74,3.74,0,0,0,4.93-3.05c.31-1.72-.72-5-3.09-4.22-1.8.61-2.44,3.57-1.32,5s3.63,1.05,4-.79c.2-1-1.33-1.43-1.53-.42Z"/><g class="cls-34"><path class="cls-35" d="M122.28,198.33c2.83,1.12,14.07,14.63,36.38,14.63s33.55-13.5,36.38-14.63,18-8.86,8-19.48c.12,1-.73,3.51-2.26,5.5a16,16,0,0,1-5.76,4.19c-2.83,1.12-14.07,14.63-36.38,14.63s-33.55-13.5-36.38-14.63a17.94,17.94,0,0,1-4.8-3.1c-1.76-1.73-2.54-3.89-3.32-4.54C104.21,191.53,119.41,197.19,122.28,198.33Z"/></g><path class="cls-33" d="M117.93,255.42a3.5,3.5,0,0,1-.76-6.91c4.51-1,9.07-2.46,13.48-3.86,4-1.28,8.18-2.6,12.4-3.63a96.36,96.36,0,0,1,58.63,4.3,3.49,3.49,0,1,1-2.63,6.47,89.37,89.37,0,0,0-54.34-4c-4,1-8,2.26-11.94,3.5-4.55,1.45-9.26,2.95-14.07,4A3.42,3.42,0,0,1,117.93,255.42Z"/><path class="cls-7" d="M417.17,200.74a1,1,0,0,1-.49,1.12c-2.92-.54-4.07-4-4.6-6.95-.48-2.67-.9-5.53.18-8s4.24-4.28,6.6-2.94a5.87,5.87,0,0,1,2.47,3.93,14,14,0,0,1-4,13"/><path class="cls-7" d="M413.91,200.74l-.06.64,1-2.3-.44.48,3.17-.84c-2.86-.85-4.18-11.64-.79-11.84,1.93-.11,1.71,4.34,1.51,5.62a11,11,0,0,1-3.2,6.13c-2.94,3,1.66,7.61,4.61,4.61a17.53,17.53,0,0,0,5.1-14.35c-.59-5-4.13-9.89-9.73-8.35s-7.16,7.37-6.54,12.49c.6,4.93,2,10.4,7.3,12a3.23,3.23,0,0,0,3.17-.84,5,5,0,0,0,1.45-3.42c.38-4.18-6.14-4.15-6.52,0Z"/><path class="cls-7" d="M412.19,202.21c-3.13,4.86-24.33-4.42-28.61-5.75L385,201.9l1.75-1.57c3.54-2.23.27-7.87-3.29-5.63a10.53,10.53,0,0,0-3.07,2.59,3.3,3.3,0,0,0,1.44,5.45c7.81,2.42,15.79,5.69,23.81,7.25,5,1,9.33-.09,12.16-4.49,2.28-3.54-3.36-6.81-5.63-3.29Z"/><path class="cls-7" d="M409.42,208.94q4.3,12.74,7.62,25.79L428.82,233a3.71,3.71,0,0,0,1.61-.5c1.07-.74,1.05-2.29,1-3.59a89,89,0,0,1,1.48-24c.25-1.26.36-2.89-.78-3.48a2.87,2.87,0,0,0-1.56-.17,48.31,48.31,0,0,0-17.7,5"/><path class="cls-7" d="M406.28,209.81q4.26,12.77,7.62,25.79c.48,1.85,2.29,2.53,4,2.28,4.78-.71,14.33.09,16.41-5.49,1.05-2.81.11-6.64.09-9.52a90,90,0,0,1,1.16-14.76c.66-4.16,1.55-8.64-3.48-10-6.27-1.68-15.42,2.67-20.91,5.27-3.79,1.8-.48,7.42,3.29,5.63,2.08-1,14-6.53,16.06-4.56-.67-.65-2.37,11-2.39,11.16-.15,2-.24,4-.26,6,0,1.1.73,6.35.24,7.24-1.18,2.16-9.18,2.28-12,2.69l4,2.28q-3.36-13-7.62-25.79c-1.32-4-7.62-2.26-6.29,1.73Z"/><path class="cls-7" d="M431.62,203.7q5.91,5.87,11.76,11.8c2.28,2.32,3.18,3,3.31,6.26.1,2.37-.22,4.84-.33,7.21-.19,4.19,6.33,4.18,6.52,0,.21-4.62,1.68-10.38-1.27-14.34-4.22-5.67-10.37-10.57-15.38-15.55-3-3-7.59,1.65-4.61,4.61Z"/><path class="cls-7" d="M411.31,235.83,406.7,262l-2.15,12.2c-.92,5.23.2,7.1-5.31,6.83l3.14,4.13.56-1.48c1.48-3.93-4.82-5.63-6.29-1.73l-.56,1.48c-.79,2.09,1.21,4,3.14,4.13,9.39.46,10.07-3,11.59-11.62l6.77-38.34c.72-4.1-5.56-5.86-6.29-1.73Z"/><path class="cls-7" d="M427.19,233.81l9.42,25.55,4,11c2.17,5.89,4.72,9.27-2.62,11.51-4,1.22-2.29,7.52,1.73,6.29,3.34-1,6.93-1.62,9.85-3.58a3.24,3.24,0,0,0,1.61-2.81c-.81-7.45-5.07-15.24-7.66-22.27l-10.1-27.38c-1.44-3.9-7.74-2.22-6.29,1.73Z"/><path class="cls-7" d="M363.68,182.51a800.73,800.73,0,0,1,61.65,79c2.35,3.44,8,.18,5.63-3.29a814.16,814.16,0,0,0-62.67-80.33c-2.79-3.15-7.38,1.48-4.61,4.61Z"/><path class="cls-7" d="M361.69,174.67l.17,18.88c0,4.27,6.12,4.1,6.52,0a102.36,102.36,0,0,0-.06-20.61l-4.9,2.81,10.27,6.9-.66-5.12-9.18,10.06,5.45,3.17.5-1.64c1.23-4-5.06-5.74-6.29-1.73L363,189c-.94,3.06,3.25,5.58,5.45,3.17l9.18-10.06A3.31,3.31,0,0,0,377,177l-10.27-6.9c-1.93-1.3-5.16.39-4.9,2.81a102.36,102.36,0,0,1,.06,20.61h6.52l-.17-18.88c0-4.19-6.56-4.2-6.52,0Z"/></g></g></svg>